<?xml version="1.0" encoding="utf-8"?>
<!-- Generator: Adobe Illustrator 26.0.1, SVG Export Plug-In . SVG Version: 6.00 Build 0)  -->
<svg version="1.1" id="Layer_1" xmlns="http://www.w3.org/2000/svg" xmlns:xlink="http://www.w3.org/1999/xlink" x="0px" y="0px"
	 viewBox="0 0 350 1000" style="enable-background:new 0 0 350 1000;" xml:space="preserve">
<style type="text/css">
	.st0{fill:#6D6762;}
	.st1{fill:#5B5653;}
	.st2{fill:#7F7873;}
</style>
<g>
	<path class="st0" d="M95.8,790.8l-5.5-1.4c0.2-0.8,19.9-81.3,39.7-185.3c19.5-102.4,26.1-342.7,26.1-436.7h5.7
		c0,94.1-6.6,335-26.2,437.7C115.7,709.4,96,790,95.8,790.8z"/>
	<path class="st0" d="M130.7,790.8l-5.5-1.4c0.2-0.8,19.5-76.9,34.5-214.1c8.8-81,14.3-279,14.3-416h5.7
		c0,137.2-5.5,335.5-14.3,416.7C150.3,713.6,130.9,790.1,130.7,790.8z"/>
	<polygon class="st1" points="161.8,167.5 156.1,167.5 154,159.3 159.7,159.3 	"/>
	<rect x="150.9" y="142.4" class="st0" width="51.6" height="16.9"/>
	<rect x="156" y="132.8" class="st0" width="41.2" height="9.6"/>
	<rect x="168.2" y="98.4" class="st0" width="16.9" height="9.6"/>
	<rect x="172" y="52.1" class="st0" width="9.2" height="46.3"/>
	<rect x="175.1" class="st0" width="3.1" height="52.1"/>
	<polygon class="st2" points="197.2,132.8 156,132.8 164.3,108 188.9,108 	"/>
	<rect x="160.4" y="172.2" class="st0" width="16.5" height="3.8"/>
	<rect x="158.9" y="185.3" class="st0" width="16.5" height="3.8"/>
	<rect x="158.9" y="205" class="st0" width="16.5" height="3.8"/>
	<rect x="157.9" y="223.8" class="st0" width="16.5" height="3.8"/>
	<rect x="157.9" y="242.8" class="st0" width="16.5" height="3.8"/>
	<rect x="157.9" y="262.8" class="st0" width="16.5" height="3.8"/>
	<rect x="157.9" y="283.9" class="st0" width="16.5" height="3.8"/>
	<rect x="156.4" y="329.7" class="st0" width="16.5" height="3.8"/>
	
		<rect x="167.1" y="185.3" transform="matrix(0.8307 -0.5567 0.5567 0.8307 -80.9911 126.822)" class="st0" width="1.9" height="22.6"/>
	<rect x="156.8" y="195.6" transform="matrix(0.557 -0.8305 0.8305 0.557 -88.827 226.65)" class="st0" width="22.6" height="1.9"/>
	
		<rect x="167.1" y="205" transform="matrix(0.8307 -0.5567 0.5567 0.8307 -91.9683 130.1627)" class="st0" width="1.9" height="22.6"/>
	
		<rect x="156.8" y="215.4" transform="matrix(0.557 -0.8305 0.8305 0.557 -105.2026 235.3845)" class="st0" width="22.6" height="1.9"/>
	
		<rect x="166.2" y="223.8" transform="matrix(0.8307 -0.5567 0.5567 0.8307 -102.567 132.8412)" class="st0" width="1.9" height="22.6"/>
	
		<rect x="155.9" y="234.1" transform="matrix(0.5569 -0.8306 0.8306 0.5569 -121.1839 243.0009)" class="st0" width="22.6" height="1.9"/>
	
		<rect x="166.2" y="242.8" transform="matrix(0.8307 -0.5567 0.5567 0.8307 -113.1466 136.0581)" class="st0" width="1.9" height="22.6"/>
	
		<rect x="155.9" y="253.1" transform="matrix(0.5569 -0.8306 0.8306 0.5569 -136.9691 251.4222)" class="st0" width="22.6" height="1.9"/>
	
		<rect x="166.2" y="263.7" transform="matrix(0.8109 -0.5852 0.5852 0.8109 -129.4978 149.8794)" class="st0" width="1.9" height="23.1"/>
	
		<rect x="155.6" y="274.4" transform="matrix(0.5852 -0.8109 0.8109 0.5852 -153.9095 249.7418)" class="st0" width="23.1" height="1.9"/>
	<rect x="157.9" y="304.9" class="st0" width="16.5" height="3.8"/>
	
		<rect x="165.7" y="284.4" transform="matrix(0.7915 -0.6112 0.6112 0.7915 -146.3206 163.655)" class="st0" width="1.9" height="23.7"/>
	
		<rect x="154.8" y="295.3" transform="matrix(0.6116 -0.7912 0.7912 0.6116 -169.6568 246.9403)" class="st0" width="23.7" height="1.9"/>
	
		<rect x="165" y="305" transform="matrix(0.8153 -0.5791 0.5791 0.8153 -154.1059 155.0466)" class="st0" width="1.9" height="28.2"/>
	
		<rect x="151.9" y="318.1" transform="matrix(0.5793 -0.8151 0.8151 0.5793 -190.2556 269.5057)" class="st0" width="28.2" height="1.9"/>
	<rect x="156" y="353.7" class="st0" width="16.5" height="3.8"/>
	
		<rect x="164.5" y="329.6" transform="matrix(0.8065 -0.5912 0.5912 0.8065 -171.0089 164.2788)" class="st0" width="1.9" height="27.6"/>
	
		<rect x="151.7" y="342.5" transform="matrix(0.5911 -0.8066 0.8066 0.5911 -209.3372 273.934)" class="st0" width="27.6" height="1.9"/>
	<rect x="153.9" y="378" class="st0" width="17.8" height="3.8"/>
	
		<rect x="163.8" y="353.9" transform="matrix(0.8065 -0.5912 0.5912 0.8065 -185.4716 168.5448)" class="st0" width="1.9" height="27.6"/>
	
		<rect x="151" y="366.7" transform="matrix(0.5909 -0.8067 0.8067 0.5909 -229.1911 283.3465)" class="st0" width="27.6" height="1.9"/>
	<rect x="152.8" y="403.4" class="st0" width="17.9" height="3.8"/>
	
		<rect x="162.4" y="377.7" transform="matrix(0.8081 -0.5891 0.5891 0.8081 -199.7796 171.5358)" class="st0" width="1.9" height="29.3"/>
	
		<rect x="148.7" y="391.4" transform="matrix(0.5886 -0.8084 0.8084 0.5886 -249.986 293.4683)" class="st0" width="29.3" height="1.9"/>
	
		<rect x="131.3" y="641.9" transform="matrix(0.9209 -0.3898 0.3898 0.9209 -244.1419 103.226)" class="st0" width="1.9" height="22.4"/>
	
		<rect x="118.8" y="652.1" transform="matrix(0.6429 -0.766 0.766 0.6429 -453.0201 334.5248)" class="st0" width="26.9" height="1.9"/>
	
		<rect x="129.7" y="672.7" transform="matrix(0.812 -0.5837 0.5837 0.812 -379.5166 206.463)" class="st0" width="1.9" height="39.3"/>
	
		<rect x="107.2" y="691.3" transform="matrix(0.7352 -0.6778 0.6778 0.7352 -434.6284 271.8695)" class="st0" width="47" height="1.9"/>
	
		<rect x="123.9" y="705.6" transform="matrix(0.7977 -0.6031 0.6031 0.7977 -412.2936 222.0494)" class="st0" width="1.9" height="40"/>
	
		<rect x="100.6" y="724.6" transform="matrix(0.7514 -0.6598 0.6598 0.7514 -447.6844 262.6868)" class="st0" width="48.3" height="1.9"/>
	
		<rect x="116.7" y="738" transform="matrix(0.7656 -0.6433 0.6433 0.7656 -459.5795 253.1923)" class="st0" width="1.9" height="38.7"/>
	
		<rect x="93.8" y="756.4" transform="matrix(0.7853 -0.6191 0.6191 0.7853 -443.5594 235.416)" class="st0" width="47.8" height="1.9"/>
	
		<rect x="71" y="877.7" transform="matrix(0.7276 -0.686 0.686 0.7276 -597.3895 294.3213)" class="st0" width="1.9" height="43.3"/>
	
		<rect x="38.6" y="898.4" transform="matrix(0.8812 -0.4727 0.4727 0.8812 -416.556 140.7899)" class="st0" width="66.7" height="1.9"/>
	
		<rect x="70.2" y="863.7" transform="matrix(0.7791 -0.6269 0.6269 0.7791 -532.4622 237.7293)" class="st0" width="1.9" height="21.5"/>
	
		<rect x="58.1" y="873.5" transform="matrix(0.733 -0.6803 0.6803 0.733 -576.0518 281.3462)" class="st0" width="24.6" height="1.9"/>
	
		<rect x="83.8" y="864.1" transform="matrix(0.8103 -0.5861 0.5861 0.8103 -496.3914 215.5699)" class="st0" width="1.9" height="20.6"/>
	
		<rect x="72.4" y="873.5" transform="matrix(0.6954 -0.7186 0.7186 0.6954 -602.7737 326.7422)" class="st0" width="23.3" height="1.9"/>
	
		<rect x="96.5" y="864.3" transform="matrix(0.8111 -0.5849 0.5849 0.8111 -492.5576 221.9915)" class="st0" width="1.9" height="18.4"/>
	
		<rect x="85.7" y="873.5" transform="matrix(0.6954 -0.7186 0.7186 0.6954 -598.7195 336.3073)" class="st0" width="23.3" height="1.9"/>
	
		<rect x="81" y="837.3" transform="matrix(0.7939 -0.6081 0.6081 0.7939 -501.8274 225.6894)" class="st0" width="1.9" height="31.4"/>
	
		<rect x="58.2" y="850.6" transform="matrix(0.6853 -0.7282 0.7282 0.6853 -595.7438 324.3518)" class="st0" width="38.5" height="1.9"/>
	
		<rect x="93.5" y="833.9" transform="matrix(0.7939 -0.608 0.608 0.7939 -498.2969 232.9261)" class="st0" width="1.9" height="35.3"/>
	
		<rect x="71.8" y="850.6" transform="matrix(0.6854 -0.7281 0.7281 0.6854 -591.3574 334.1634)" class="st0" width="38.5" height="1.9"/>
	
		<rect x="107.1" y="833.9" transform="matrix(0.7939 -0.6081 0.6081 0.7939 -495.5053 241.241)" class="st0" width="1.9" height="35.3"/>
	
		<rect x="85.5" y="850.6" transform="matrix(0.6854 -0.7281 0.7281 0.6854 -587.066 344.0972)" class="st0" width="38.5" height="1.9"/>
	
		<rect x="125.2" y="662.6" transform="matrix(0.9096 -0.4156 0.4156 0.9096 -267.1451 113.0411)" class="st0" width="1.9" height="15.4"/>
	
		<rect x="116.7" y="669.3" transform="matrix(0.6705 -0.7419 0.7419 0.6705 -455.713 314.4191)" class="st0" width="18.9" height="1.9"/>
	
		<rect x="133.9" y="662.6" transform="matrix(0.9096 -0.4155 0.4155 0.9096 -266.3365 116.6698)" class="st0" width="1.9" height="15.4"/>
	
		<rect x="125.5" y="669.3" transform="matrix(0.6705 -0.7419 0.7419 0.6705 -452.8325 320.9263)" class="st0" width="18.9" height="1.9"/>
	
		<rect x="142.7" y="662.6" transform="matrix(0.9096 -0.4155 0.4155 0.9096 -265.5443 120.31)" class="st0" width="1.9" height="15.4"/>
	
		<rect x="134.2" y="669.3" transform="matrix(0.6705 -0.7419 0.7419 0.6705 -449.9465 327.4247)" class="st0" width="18.9" height="1.9"/>
	
		<rect x="156.6" y="662.3" transform="matrix(0.8734 -0.4869 0.4869 0.8734 -306.446 161.5227)" class="st0" width="1.9" height="16"/>
	
		<rect x="148.5" y="669.3" transform="matrix(0.6269 -0.7791 0.7791 0.6269 -463.4625 372.8155)" class="st0" width="18" height="1.9"/>
	
		<rect x="165.3" y="662.3" transform="matrix(0.8735 -0.4869 0.4869 0.8735 -305.3098 165.7625)" class="st0" width="1.9" height="16"/>
	<rect x="157.3" y="669.3" transform="matrix(0.627 -0.779 0.779 0.627 -460.146 379.537)" class="st0" width="18" height="1.9"/>
	
		<rect x="176.6" y="660.8" transform="matrix(0.7346 -0.6785 0.6785 0.7346 -407.6692 298.4093)" class="st0" width="1.9" height="19.1"/>
	
		<rect x="166.3" y="669.3" transform="matrix(0.6807 -0.7326 0.7326 0.6807 -434.8771 342.9113)" class="st0" width="19.1" height="1.9"/>
	
		<rect x="143.4" y="641.9" transform="matrix(0.9209 -0.3898 0.3898 0.9209 -243.1714 107.9449)" class="st0" width="1.9" height="22.4"/>
	
		<rect x="130.9" y="652.1" transform="matrix(0.643 -0.7659 0.7659 0.643 -448.6422 343.7205)" class="st0" width="26.9" height="1.9"/>
	
		<rect x="165.1" y="639.1" transform="matrix(0.7388 -0.6739 0.6739 0.7388 -396.7613 282.4873)" class="st0" width="1.9" height="27.9"/>
	
		<rect x="150" y="652.1" transform="matrix(0.7429 -0.6694 0.6694 0.7429 -394.6645 278.6)" class="st0" width="30.8" height="1.9"/>
	<rect x="151.8" y="431.4" class="st0" width="19" height="3.8"/>
	
		<rect x="160.9" y="402.5" transform="matrix(0.8324 -0.5541 0.5541 0.8324 -204.914 159.8303)" class="st0" width="1.9" height="32.5"/>
	
		<rect x="145.6" y="417.8" transform="matrix(0.5539 -0.8326 0.8326 0.5539 -276.4442 321.5242)" class="st0" width="32.5" height="1.9"/>
	<rect x="150.1" y="458.3" class="st0" width="18.8" height="3.8"/>
	
		<rect x="159.3" y="430.7" transform="matrix(0.8048 -0.5935 0.5935 0.8048 -233.6634 182.2446)" class="st0" width="1.9" height="31.5"/>
	
		<rect x="144.5" y="445.5" transform="matrix(0.5935 -0.8048 0.8048 0.5935 -294.1369 310.4661)" class="st0" width="31.5" height="1.9"/>
	<rect x="147.8" y="485.3" class="st0" width="20" height="3.8"/>
	
		<rect x="157.7" y="457.7" transform="matrix(0.8048 -0.5935 0.5935 0.8048 -250.0609 186.5431)" class="st0" width="1.9" height="31.5"/>
	
		<rect x="142.9" y="472.5" transform="matrix(0.5935 -0.8048 0.8048 0.5935 -316.6096 320.1369)" class="st0" width="31.5" height="1.9"/>
	<rect x="145.9" y="511.7" class="st0" width="20" height="3.8"/>
	
		<rect x="156" y="483.7" transform="matrix(0.7833 -0.6216 0.6216 0.7833 -276.7191 205.8764)" class="st0" width="1.9" height="32.4"/>
	
		<rect x="140.8" y="498.9" transform="matrix(0.622 -0.783 0.783 0.622 -332.0677 311.8243)" class="st0" width="32.4" height="1.9"/>
	<rect x="142.8" y="540.2" class="st0" width="21.1" height="3.8"/>
	
		<rect x="153.9" y="509.9" transform="matrix(0.8028 -0.5963 0.5963 0.8028 -283.8114 196.2769)" class="st0" width="1.9" height="34.5"/>
	
		<rect x="137.5" y="526.2" transform="matrix(0.5964 -0.8027 0.8027 0.5964 -360.6776 337.0262)" class="st0" width="34.5" height="1.9"/>
	<rect x="139.2" y="570.6" class="st0" width="21.1" height="3.8"/>
	<rect x="113.1" y="707.8" class="st0" width="29.7" height="3.8"/>
	<rect x="106.2" y="740.5" class="st0" width="29.7" height="3.8"/>
	<rect x="98.5" y="770.7" class="st0" width="33.1" height="3.8"/>
	<rect x="56.4" y="881.4" class="st0" width="44.3" height="3.8"/>
	<rect x="41.9" y="914.1" class="st0" width="46.9" height="3.8"/>
	
		<rect x="56.5" y="911.5" transform="matrix(0.7276 -0.686 0.686 0.7276 -624.473 293.5637)" class="st0" width="1.9" height="43.3"/>
	
		<rect x="24.1" y="932.2" transform="matrix(0.8811 -0.4729 0.4729 0.8811 -434.4059 138.0607)" class="st0" width="66.7" height="1.9"/>
	
		<rect x="43.9" y="944" transform="matrix(0.6938 -0.7201 0.7201 0.6938 -683.2154 328.597)" class="st0" width="1.9" height="47.7"/>
	
		<rect x="7.1" y="966.9" transform="matrix(0.8811 -0.4728 0.4728 0.8811 -452.6391 134.9741)" class="st0" width="70.1" height="1.9"/>
	<rect x="27.4" y="947.9" class="st0" width="46.9" height="3.8"/>
	
		<rect x="150.6" y="539.2" transform="matrix(0.8625 -0.506 0.506 0.8625 -260.7466 153.1975)" class="st0" width="1.9" height="34.6"/>
	
		<rect x="133.7" y="555.6" transform="matrix(0.6212 -0.7836 0.7836 0.6212 -378.2232 330.5085)" class="st0" width="38.1" height="1.9"/>
	
		<rect x="147.4" y="568.4" transform="matrix(0.852 -0.5235 0.5235 0.852 -284.83 164.3798)" class="st0" width="1.9" height="35.1"/>
	<rect x="129.1" y="585" transform="matrix(0.6726 -0.74 0.74 0.6726 -384.7442 302.3576)" class="st0" width="40.4" height="1.9"/>
	<path class="st0" d="M257.9,790.8c-0.2-0.8-19.9-81.4-39.8-185.5c-19.6-102.8-26.2-343.6-26.2-437.7h5.7
		c0,93.9,6.6,334.3,26.1,436.7c19.8,104,39.5,184.5,39.7,185.3L257.9,790.8z"/>
	<path class="st0" d="M222.9,790.8c-0.2-0.8-19.6-77.3-34.6-214.9c-8.9-81.2-14.3-279.5-14.3-416.7h5.7c0,137,5.5,335,14.3,416
		c15,137.2,34.3,213.3,34.5,214.1L222.9,790.8z"/>
	<polygon class="st1" points="191.9,167.5 197.6,167.5 199.7,159.3 194,159.3 	"/>
	<rect x="176.9" y="172.2" class="st0" width="16.5" height="3.8"/>
	<rect x="178.3" y="185.3" class="st0" width="16.5" height="3.8"/>
	<rect x="178.3" y="205" class="st0" width="16.5" height="3.8"/>
	<rect x="179.3" y="223.8" class="st0" width="16.5" height="3.8"/>
	<rect x="179.3" y="242.8" class="st0" width="16.5" height="3.8"/>
	<rect x="179.3" y="262.8" class="st0" width="16.5" height="3.8"/>
	<rect x="179.3" y="283.9" class="st0" width="16.5" height="3.8"/>
	<rect x="180.8" y="329.7" class="st0" width="16.5" height="3.8"/>
	
		<rect x="174.3" y="195.6" transform="matrix(0.5569 -0.8306 0.8306 0.5569 -81.0284 241.3)" class="st0" width="22.6" height="1.9"/>
	
		<rect x="184.7" y="185.3" transform="matrix(0.8307 -0.5567 0.5567 0.8307 -78.014 136.613)" class="st0" width="1.9" height="22.6"/>
	
		<rect x="174.3" y="215.4" transform="matrix(0.5569 -0.8306 0.8306 0.5569 -97.4058 250.0372)" class="st0" width="22.6" height="1.9"/>
	
		<rect x="184.7" y="205" transform="matrix(0.8307 -0.5567 0.5567 0.8307 -88.9911 139.9538)" class="st0" width="1.9" height="22.6"/>
	
		<rect x="175.2" y="234.1" transform="matrix(0.5569 -0.8306 0.8306 0.5569 -112.5972 259.0961)" class="st0" width="22.6" height="1.9"/>
	
		<rect x="185.6" y="223.8" transform="matrix(0.8307 -0.5567 0.5567 0.8307 -99.2869 143.6285)" class="st0" width="1.9" height="22.6"/>
	
		<rect x="175.2" y="253.1" transform="matrix(0.5569 -0.8306 0.8306 0.5569 -128.3824 267.5174)" class="st0" width="22.6" height="1.9"/>
	
		<rect x="185.6" y="242.8" transform="matrix(0.8307 -0.5567 0.5567 0.8307 -109.8664 146.8454)" class="st0" width="1.9" height="22.6"/>
	
		<rect x="175" y="274.4" transform="matrix(0.5852 -0.8109 0.8109 0.5852 -145.8786 265.437)" class="st0" width="23.1" height="1.9"/>
	
		<rect x="185.6" y="263.7" transform="matrix(0.8109 -0.5852 0.5852 0.8109 -125.8364 161.2088)" class="st0" width="1.9" height="23.1"/>
	<rect x="179.3" y="304.9" class="st0" width="16.5" height="3.8"/>
	
		<rect x="175.1" y="295.3" transform="matrix(0.6115 -0.7913 0.7913 0.6115 -161.7736 263.066)" class="st0" width="23.7" height="1.9"/>
	
		<rect x="186" y="284.4" transform="matrix(0.7915 -0.6112 0.6112 0.7915 -142.0874 176.0747)" class="st0" width="1.9" height="23.7"/>
	
		<rect x="173.6" y="318.1" transform="matrix(0.5795 -0.815 0.815 0.5795 -181.1069 287.1668)" class="st0" width="28.2" height="1.9"/>
	
		<rect x="186.8" y="305" transform="matrix(0.8153 -0.5791 0.5791 0.8153 -150.0907 167.6335)" class="st0" width="1.9" height="28.2"/>
	<rect x="181.3" y="353.7" class="st0" width="16.5" height="3.8"/>
	
		<rect x="174.4" y="342.5" transform="matrix(0.5911 -0.8066 0.8066 0.5911 -200.0597 292.2341)" class="st0" width="27.6" height="1.9"/>
	
		<rect x="187.2" y="329.6" transform="matrix(0.8065 -0.5912 0.5912 0.8065 -166.6199 177.691)" class="st0" width="1.9" height="27.6"/>
	<rect x="182" y="378" class="st0" width="17.8" height="3.8"/>
	
		<rect x="175.1" y="366.7" transform="matrix(0.5909 -0.8067 0.8067 0.5909 -219.3277 302.8047)" class="st0" width="27.6" height="1.9"/>
	
		<rect x="187.9" y="353.9" transform="matrix(0.8065 -0.5912 0.5912 0.8065 -180.8098 182.8055)" class="st0" width="1.9" height="27.6"/>
	<rect x="182.9" y="403.4" class="st0" width="17.9" height="3.8"/>
	
		<rect x="175.7" y="391.4" transform="matrix(0.5886 -0.8084 0.8084 0.5886 -238.8931 315.2596)" class="st0" width="29.3" height="1.9"/>
	
		<rect x="189.4" y="377.7" transform="matrix(0.8081 -0.5891 0.5891 0.8081 -194.6047 187.4192)" class="st0" width="1.9" height="29.3"/>
	
		<rect x="210.3" y="652.1" transform="matrix(0.3899 -0.9209 0.9209 0.3899 -466.2984 602.3903)" class="st0" width="22.4" height="1.9"/>
	
		<rect x="220.5" y="639.6" transform="matrix(0.7664 -0.6424 0.6424 0.7664 -367.7906 294.8107)" class="st0" width="1.9" height="26.9"/>
	
		<rect x="203.4" y="691.3" transform="matrix(0.5837 -0.812 0.812 0.5837 -469.2946 469.2902)" class="st0" width="39.3" height="1.9"/>
	<rect x="222" y="668.8" transform="matrix(0.678 -0.735 0.735 0.678 -437.0645 386.8156)" class="st0" width="1.9" height="47"/>
	
		<rect x="208.9" y="724.6" transform="matrix(0.6035 -0.7973 0.7973 0.6035 -487.7635 470.137)" class="st0" width="40" height="1.9"/>
	
		<rect x="227.9" y="701.4" transform="matrix(0.6594 -0.7518 0.7518 0.6594 -467.4938 419.1557)" class="st0" width="1.9" height="48.3"/>
	
		<rect x="216.7" y="756.4" transform="matrix(0.6435 -0.7655 0.7655 0.6435 -495.5706 450.667)" class="st0" width="38.7" height="1.9"/>
	
		<rect x="235" y="733.4" transform="matrix(0.6196 -0.785 0.785 0.6196 -504.677 473.3672)" class="st0" width="1.9" height="47.8"/>
	
		<rect x="219.8" y="669.3" transform="matrix(0.4156 -0.9095 0.9095 0.4156 -476.6748 598.6426)" class="st0" width="15.4" height="1.9"/>
	
		<rect x="226.6" y="660.8" transform="matrix(0.7415 -0.671 0.671 0.7415 -390.9083 325.939)" class="st0" width="1.9" height="18.9"/>
	
		<rect x="211.1" y="669.3" transform="matrix(0.4155 -0.9096 0.9096 0.4155 -481.8024 590.7518)" class="st0" width="15.4" height="1.9"/>
	
		<rect x="217.8" y="660.8" transform="matrix(0.7415 -0.6709 0.6709 0.7415 -393.1587 320.038)" class="st0" width="1.9" height="18.9"/>
	
		<rect x="202.3" y="669.3" transform="matrix(0.4155 -0.9096 0.9096 0.4155 -486.931 582.8532)" class="st0" width="15.4" height="1.9"/>
	
		<rect x="209.1" y="660.8" transform="matrix(0.7415 -0.671 0.671 0.7415 -395.4367 314.1852)" class="st0" width="1.9" height="18.9"/>
	
		<rect x="188.2" y="669.3" transform="matrix(0.4873 -0.8732 0.8732 0.4873 -484.7274 514.9334)" class="st0" width="16" height="1.9"/>
	
		<rect x="195.2" y="661.3" transform="matrix(0.7792 -0.6267 0.6267 0.7792 -376.7763 270.9222)" class="st0" width="1.9" height="18"/>
	
		<rect x="179.4" y="669.3" transform="matrix(0.4873 -0.8732 0.8732 0.4873 -489.2202 507.2918)" class="st0" width="16" height="1.9"/>
	
		<rect x="186.5" y="661.3" transform="matrix(0.7792 -0.6267 0.6267 0.7792 -378.7101 265.4321)" class="st0" width="1.9" height="18"/>
	
		<rect x="198.1" y="652.1" transform="matrix(0.3899 -0.9209 0.9209 0.3899 -473.6962 591.2248)" class="st0" width="22.4" height="1.9"/>
	
		<rect x="208.4" y="639.6" transform="matrix(0.7664 -0.6424 0.6424 0.7664 -370.6178 287.0139)" class="st0" width="1.9" height="26.9"/>
	
		<rect x="173.7" y="652.1" transform="matrix(0.6742 -0.7385 0.7385 0.6742 -421.2011 351.3533)" class="st0" width="27.9" height="1.9"/>
	
		<rect x="187.4" y="637.7" transform="matrix(0.6694 -0.7429 0.7429 0.6694 -422.9205 355.8203)" class="st0" width="1.9" height="30.8"/>
	<rect x="182.9" y="431.4" class="st0" width="19" height="3.8"/>
	
		<rect x="175.6" y="417.8" transform="matrix(0.5539 -0.8326 0.8326 0.5539 -263.037 346.539)" class="st0" width="32.5" height="1.9"/>
	
		<rect x="190.9" y="402.5" transform="matrix(0.8324 -0.5541 0.5541 0.8324 -199.8784 176.4826)" class="st0" width="1.9" height="32.5"/>
	<rect x="184.8" y="458.3" class="st0" width="18.8" height="3.8"/>
	
		<rect x="177.7" y="445.5" transform="matrix(0.5935 -0.8048 0.8048 0.5935 -280.6651 337.1386)" class="st0" width="31.5" height="1.9"/>
	
		<rect x="192.5" y="430.7" transform="matrix(0.8048 -0.5935 0.5935 0.8048 -227.1956 201.9131)" class="st0" width="1.9" height="31.5"/>
	<rect x="186" y="485.3" class="st0" width="20" height="3.8"/>
	
		<rect x="179.3" y="472.5" transform="matrix(0.5935 -0.8048 0.8048 0.5935 -301.784 349.4792)" class="st0" width="31.5" height="1.9"/>
	
		<rect x="194.1" y="457.7" transform="matrix(0.8048 -0.5935 0.5935 0.8048 -242.9404 208.1794)" class="st0" width="1.9" height="31.5"/>
	<rect x="187.9" y="511.7" class="st0" width="20" height="3.8"/>
	
		<rect x="180.6" y="498.9" transform="matrix(0.622 -0.783 0.783 0.622 -317.0297 342.9887)" class="st0" width="32.4" height="1.9"/>
	
		<rect x="195.8" y="483.7" transform="matrix(0.7833 -0.6216 0.6216 0.7833 -268.1003 230.6182)" class="st0" width="1.9" height="32.4"/>
	<rect x="189.8" y="540.2" class="st0" width="21.1" height="3.8"/>
	
		<rect x="181.6" y="526.2" transform="matrix(0.5965 -0.8026 0.8026 0.5965 -342.868 372.3133)" class="st0" width="34.5" height="1.9"/>
	
		<rect x="197.9" y="509.9" transform="matrix(0.8028 -0.5963 0.5963 0.8028 -275.1205 222.5532)" class="st0" width="1.9" height="34.5"/>
	<rect x="193.3" y="570.6" class="st0" width="21.1" height="3.8"/>
	<rect x="210.9" y="707.8" class="st0" width="29.7" height="3.8"/>
	<rect x="217.8" y="740.5" class="st0" width="29.7" height="3.8"/>
	<rect x="222.1" y="770.7" class="st0" width="33.1" height="3.8"/>
	
		<rect x="184.8" y="555.6" transform="matrix(0.5054 -0.8629 0.8629 0.5054 -380.2486 449.6062)" class="st0" width="34.6" height="1.9"/>
	
		<rect x="199.9" y="537.5" transform="matrix(0.7836 -0.6212 0.6212 0.7836 -302.2585 245.2214)" class="st0" width="1.9" height="38.1"/>
	
		<rect x="187.8" y="585" transform="matrix(0.5237 -0.8519 0.8519 0.5237 -401.3861 454.0768)" class="st0" width="35.1" height="1.9"/>
	
		<rect x="203.4" y="565.8" transform="matrix(0.7395 -0.6731 0.6731 0.7395 -341.2013 290.1946)" class="st0" width="1.9" height="40.4"/>
	<path class="st0" d="M236,678.2H115.8l2.9-15.7h114.3L236,678.2z M118.1,676.3h115.5l-2.2-11.9H120.3L118.1,676.3z"/>
	<rect x="115.9" y="601" class="st0" width="122.2" height="8.8"/>
	<rect x="124.5" y="609.8" class="st1" width="105.1" height="7.8"/>
	<rect x="116.2" y="617.7" class="st0" width="121.8" height="9.3"/>
	<polygon class="st1" points="231.5,643.3 122.4,643.3 116.2,626.9 237.9,626.9 	"/>
	<rect x="62.1" y="863.6" class="st0" width="225.9" height="3.8"/>
	
		<rect x="-39" y="908.1" transform="matrix(0.4085 -0.9127 0.9127 0.4085 -806.2035 577.6951)" class="st0" width="163.3" height="5.7"/>
	
		<rect x="11" y="909.6" transform="matrix(0.3589 -0.9334 0.9334 0.3589 -792.9295 668.6295)" class="st0" width="158.4" height="3.8"/>
	<rect x="78.2" y="837.6" class="st0" width="1.9" height="28"/>
	<rect x="91.8" y="837.6" class="st0" width="1.9" height="28"/>
	<rect x="105.6" y="837.6" class="st0" width="1.9" height="28"/>
	
		<rect x="121.5" y="833.9" transform="matrix(0.7939 -0.6081 0.6081 0.7939 -492.55 249.9592)" class="st0" width="1.9" height="35.3"/>
	
		<rect x="99.8" y="850.6" transform="matrix(0.6853 -0.7282 0.7282 0.6853 -582.6461 354.6625)" class="st0" width="38.5" height="1.9"/>
	
		<rect x="135.1" y="833.9" transform="matrix(0.7939 -0.608 0.608 0.7939 -489.7114 258.2264)" class="st0" width="1.9" height="35.3"/>
	
		<rect x="113.5" y="850.6" transform="matrix(0.6853 -0.7282 0.7282 0.6853 -578.3531 364.5975)" class="st0" width="38.5" height="1.9"/>
	<rect x="119.7" y="837.6" class="st0" width="1.9" height="28"/>
	<rect x="133.5" y="837.6" class="st0" width="1.9" height="28"/>
	
		<rect x="149.3" y="832.6" transform="matrix(0.743 -0.6693 0.6693 0.743 -531.3195 319.4541)" class="st0" width="1.9" height="37.7"/>
	
		<rect x="129.6" y="850.6" transform="matrix(0.6853 -0.7282 0.7282 0.6853 -573.2875 376.3204)" class="st0" width="38.5" height="1.9"/>
	
		<rect x="164.3" y="833.5" transform="matrix(0.7787 -0.6275 0.6275 0.7787 -497.7063 292.1646)" class="st0" width="1.9" height="36"/>
	
		<rect x="143.2" y="850.6" transform="matrix(0.6853 -0.7282 0.7282 0.6853 -568.9871 386.2438)" class="st0" width="38.5" height="1.9"/>
	
		<rect x="173.9" y="834.3" transform="matrix(0.8149 -0.5795 0.5795 0.8149 -461.1293 258.929)" class="st0" width="1.9" height="34.4"/>
	
		<rect x="157.6" y="850.9" transform="matrix(0.583 -0.8125 0.8125 0.583 -619.0504 497.5817)" class="st0" width="35.3" height="1.9"/>
	<rect x="149.5" y="837.6" class="st0" width="1.9" height="28"/>
	<rect x="163.3" y="837.6" class="st0" width="1.9" height="28"/>
	<rect x="-0.7" y="984" class="st0" width="78.2" height="16.6"/>
	
		<rect x="256.3" y="898.4" transform="matrix(0.6853 -0.7283 0.7283 0.6853 -567.4933 485.4832)" class="st0" width="43.3" height="1.9"/>
	
		<rect x="277" y="866" transform="matrix(0.4726 -0.8813 0.8813 0.4726 -645.9819 719.3037)" class="st0" width="1.9" height="66.7"/>
	
		<rect x="268.1" y="873.5" transform="matrix(0.6268 -0.7791 0.7791 0.6268 -577.277 543.5237)" class="st0" width="21.5" height="1.9"/>
	
		<rect x="278.6" y="862.1" transform="matrix(0.6806 -0.7327 0.7327 0.6806 -551.3821 484.1446)" class="st0" width="1.9" height="24.6"/>
	
		<rect x="254.8" y="873.5" transform="matrix(0.5857 -0.8105 0.8105 0.5857 -598.8824 577.1602)" class="st0" width="20.6" height="1.9"/>
	
		<rect x="264.9" y="862.8" transform="matrix(0.7186 -0.6954 0.6954 0.7186 -533.302 430.9605)" class="st0" width="1.9" height="23.3"/>
	
		<rect x="243.3" y="872.6" transform="matrix(0.585 -0.811 0.811 0.585 -603.6727 567.2674)" class="st0" width="18.4" height="1.9"/>
	
		<rect x="251.6" y="862.8" transform="matrix(0.7186 -0.6954 0.6954 0.7186 -537.0549 421.7159)" class="st0" width="1.9" height="23.3"/>
	
		<rect x="252.2" y="852.1" transform="matrix(0.6087 -0.7934 0.7934 0.6087 -571.9588 546.327)" class="st0" width="31.4" height="1.9"/>
	
		<rect x="271.5" y="832.3" transform="matrix(0.7285 -0.6851 0.6851 0.7285 -509.3777 417.8907)" class="st0" width="1.9" height="38.5"/>
	
		<rect x="237.8" y="850.6" transform="matrix(0.6086 -0.7935 0.7935 0.6086 -575.6638 535.9703)" class="st0" width="35.3" height="1.9"/>
	
		<rect x="257.9" y="832.3" transform="matrix(0.7285 -0.6851 0.6851 0.7285 -513.0825 408.5438)" class="st0" width="1.9" height="38.5"/>
	
		<rect x="224.2" y="850.6" transform="matrix(0.6085 -0.7936 0.7936 0.6085 -581.0559 525.2769)" class="st0" width="35.3" height="1.9"/>
	
		<rect x="244.2" y="832.3" transform="matrix(0.7284 -0.6851 0.6851 0.7284 -516.804 399.2267)" class="st0" width="1.9" height="38.5"/>
	<rect x="249.2" y="881.4" class="st0" width="44.3" height="3.8"/>
	
		<rect x="270.8" y="932.2" transform="matrix(0.6853 -0.7282 0.7282 0.6853 -587.4949 506.6424)" class="st0" width="43.3" height="1.9"/>
	
		<rect x="291.5" y="899.8" transform="matrix(0.4726 -0.8813 0.8813 0.4726 -668.0679 749.8647)" class="st0" width="1.9" height="66.7"/>
	
		<rect x="281.2" y="966.9" transform="matrix(0.7202 -0.6938 0.6938 0.7202 -586.1049 482.4738)" class="st0" width="47.7" height="1.9"/>
	
		<rect x="306.8" y="932.8" transform="matrix(0.4733 -0.8809 0.8809 0.4733 -690.5276 780.9191)" class="st0" width="1.9" height="70.1"/>
	<rect x="275.5" y="947.9" class="st0" width="46.9" height="3.8"/>
	
		<rect x="304.4" y="829.3" transform="matrix(0.9127 -0.4085 0.4085 0.9127 -345.3262 205.0071)" class="st0" width="5.7" height="163.3"/>
	
		<rect x="257.8" y="832.3" transform="matrix(0.9335 -0.3587 0.3587 0.9335 -309.6608 153.7881)" class="st0" width="3.8" height="158.4"/>
	<rect x="269.8" y="837.6" class="st0" width="1.9" height="28"/>
	<rect x="256.2" y="837.6" class="st0" width="1.9" height="28"/>
	<rect x="242.4" y="837.6" class="st0" width="1.9" height="28"/>
	
		<rect x="209.8" y="850.6" transform="matrix(0.6086 -0.7935 0.7935 0.6086 -586.6093 513.7583)" class="st0" width="35.3" height="1.9"/>
	
		<rect x="229.9" y="832.3" transform="matrix(0.7285 -0.6851 0.6851 0.7285 -520.6797 389.3761)" class="st0" width="1.9" height="38.5"/>
	
		<rect x="196.2" y="850.6" transform="matrix(0.6086 -0.7935 0.7935 0.6086 -591.9539 502.9449)" class="st0" width="35.3" height="1.9"/>
	
		<rect x="216.3" y="832.3" transform="matrix(0.7285 -0.6851 0.6851 0.7285 -524.3845 380.0291)" class="st0" width="1.9" height="38.5"/>
	<rect x="228.3" y="837.6" class="st0" width="1.9" height="28"/>
	<rect x="214.5" y="837.6" class="st0" width="1.9" height="28"/>
	
		<rect x="180.7" y="850.6" transform="matrix(0.6598 -0.7514 0.7514 0.6598 -572.0465 439.4603)" class="st0" width="37.3" height="1.9"/>
	
		<rect x="200.2" y="832.3" transform="matrix(0.7285 -0.6851 0.6851 0.7285 -528.7554 369.0016)" class="st0" width="1.9" height="38.5"/>
	
		<rect x="166.7" y="850.6" transform="matrix(0.6273 -0.7788 0.7788 0.6273 -594.304 461.1449)" class="st0" width="36" height="1.9"/>
	
		<rect x="186.5" y="832.3" transform="matrix(0.7285 -0.6851 0.6851 0.7285 -532.4648 359.6615)" class="st0" width="1.9" height="38.5"/>
	<rect x="198.5" y="837.6" class="st0" width="1.9" height="28"/>
	<rect x="184.7" y="837.6" class="st0" width="1.9" height="28"/>
	<rect x="272.5" y="984" class="st0" width="78.2" height="16.6"/>
	<path class="st0" d="M279.9,984h-3.8c0-54.7-45.3-99.3-101.1-99.3C119.4,884.7,74,929.2,74,984h-3.8c0-56.8,47-103.1,104.9-103.1
		C232.9,880.9,279.9,927.1,279.9,984z"/>
	<path class="st0" d="M95.1,903.8l-2.7-2.7c22.6-23,52-35.6,82.7-35.6c30.6,0,59.8,12.5,82.3,35.2l-2.7,2.7
		c-21.8-22-50.1-34-79.6-34C145.3,869.3,116.9,881.6,95.1,903.8z"/>
	<rect x="174.7" y="865.5" class="st0" width="1.9" height="17.3"/>
	
		<rect x="163.8" y="865.5" transform="matrix(0.9983 -5.876614e-02 5.876614e-02 0.9983 -51.0866 11.192)" class="st0" width="1.9" height="17.3"/>
	
		<rect x="152.9" y="865.9" transform="matrix(0.9816 -0.1907 0.1907 0.9816 -164.1274 45.4144)" class="st0" width="1.9" height="19"/>
	
		<rect x="142.2" y="865.8" transform="matrix(0.9662 -0.2578 0.2578 0.9662 -221.1588 66.5333)" class="st0" width="1.9" height="21.5"/>
	
		<rect x="130.3" y="865.6" transform="matrix(0.9538 -0.3003 0.3003 0.9538 -257.6567 79.9667)" class="st0" width="1.9" height="24.9"/>
	
		<rect x="118.6" y="864.1" transform="matrix(0.9103 -0.4139 0.4139 0.9103 -353.5355 128.3902)" class="st0" width="1.9" height="32"/>
	
		<rect x="109.9" y="873.7" transform="matrix(0.8842 -0.4671 0.4671 0.8842 -401.9177 154.6183)" class="st0" width="1.9" height="28.4"/>
	
		<rect x="103.4" y="886.6" transform="matrix(0.8738 -0.4863 0.4863 0.8738 -423.0215 163.9393)" class="st0" width="1.9" height="20.8"/>
	
		<rect x="96.5" y="901.4" transform="matrix(0.8369 -0.5473 0.5473 0.8369 -481.1722 201.4354)" class="st0" width="1.9" height="13.7"/>
	
		<rect x="177.9" y="873.2" transform="matrix(5.878383e-02 -0.9983 0.9983 5.878383e-02 -697.1114 1008.962)" class="st0" width="17.3" height="1.9"/>
	
		<rect x="187.9" y="874.4" transform="matrix(0.1904 -0.9817 0.9817 0.1904 -699.5797 902.4838)" class="st0" width="19" height="1.9"/>
	
		<rect x="197.4" y="875.6" transform="matrix(0.2576 -0.9663 0.9663 0.2576 -692.4371 851.8871)" class="st0" width="21.5" height="1.9"/>
	
		<rect x="207.5" y="877.1" transform="matrix(0.3008 -0.9537 0.9537 0.3008 -683.5611 823.6657)" class="st0" width="24.9" height="1.9"/>
	
		<rect x="215.7" y="879.2" transform="matrix(0.4142 -0.9102 0.9102 0.4142 -665.3227 726.4254)" class="st0" width="32" height="1.9"/>
	
		<rect x="226.2" y="887" transform="matrix(0.4668 -0.8844 0.8844 0.4668 -657.0955 685.9985)" class="st0" width="28.4" height="1.9"/>
	
		<rect x="236.5" y="896.1" transform="matrix(0.4867 -0.8735 0.8735 0.4867 -656.8837 676.0766)" class="st0" width="20.8" height="1.9"/>
	
		<rect x="246.9" y="907.3" transform="matrix(0.5467 -0.8374 0.8374 0.5467 -645.4392 624.2451)" class="st0" width="13.7" height="1.9"/>
	<rect x="69.4" y="816.4" class="st0" width="214" height="5.7"/>
	<polygon class="st2" points="261.5,783.6 92.2,783.6 70.2,793.5 283.5,793.5 	"/>
	<polygon class="st1" points="277.8,838.3 72.1,838.3 70.2,821.7 282.6,821.7 	"/>
	<rect x="72.9" y="798.6" class="st1" width="8.5" height="17.7"/>
	<rect x="88.1" y="798.6" class="st1" width="10.3" height="17.7"/>
	<rect x="116" y="798.6" class="st1" width="10.3" height="17.7"/>
	<rect x="143.8" y="798.6" class="st1" width="10.3" height="17.7"/>
	<rect x="171.6" y="798.6" class="st1" width="10.3" height="17.7"/>
	<rect x="272.1" y="798.6" class="st1" width="8.5" height="17.7"/>
	<rect x="255.2" y="798.6" class="st1" width="10.3" height="17.7"/>
	<rect x="227.3" y="798.6" class="st1" width="10.3" height="17.7"/>
	<rect x="199.5" y="798.6" class="st1" width="10.3" height="17.7"/>
	<rect x="70.2" y="793.5" class="st0" width="213.2" height="5.3"/>
</g>
</svg>
