<?xml version="1.0" encoding="utf-8"?>
<!-- Generator: Adobe Illustrator 26.0.1, SVG Export Plug-In . SVG Version: 6.00 Build 0)  -->
<svg version="1.1" id="Layer_1" xmlns="http://www.w3.org/2000/svg" xmlns:xlink="http://www.w3.org/1999/xlink" x="0px" y="0px"
	 viewBox="0 0 350 1000" style="enable-background:new 0 0 350 1000;" xml:space="preserve">
<style type="text/css">
	.st0{fill:#FFE703;}
</style>
<g id="Layer_2">
</g>
<g>
	<image style="overflow:visible;" width="472" height="1121" xlink:href="75309406.png"  transform="matrix(1 0 0 1 -61 -60)">
	</image>
	<g>
		<g>
			<polygon class="st0" points="181.2,52.1 178.2,52.1 178.2,0 175.1,0 175.1,52.1 172,52.1 172,98.4 181.2,98.4 			"/>
			<path class="st0" d="M343.1,984l-65.2-145.8l4.7-16.1h0.9v-5.7h-214v5.7h0.8l1.8,16L6.8,984h-7.5v16.6h78.2V984H74
				c0-54.8,45.4-99.3,101-99.3c55.8,0,101.1,44.6,101.1,99.3h-3.6v16.6h78.2V984H343.1z M320.5,951.7l-14.7,14.1l-26.3-14.1H320.5z
				 M279.9,947.9l12.8-13.6l25.4,13.6H279.9z M320.2,946.9l-26.2-14l13.5-14.3L320.2,946.9z M306.8,917l-0.2-0.2l-14.3,15.2
				l-28.6-15.3l-0.6-1.5l0.7,0.6l14.3-15.2l28,15L306.8,917z M250.2,881.4l-0.8-2l2.8-3.9l5.7,5.9H250.2z M251.3,895
				c-0.5-0.4-1-0.9-1.5-1.3l0.6-1.1L251.3,895z M208.1,857.5l-6.6-7l6.5-7.4l6.1,6.5L208.1,857.5z M214.5,852.3v11.3h-0.7l-4.4-4.7
				L214.5,852.3z M208.2,860.4l3,3.2h-5.4L208.2,860.4z M211.6,867.4h10.7l-2.4,7.5c-3.1-1.3-6.2-2.5-9.4-3.6L211.6,867.4z
				 M222.8,856.1l-6.2-6.6l4.9-6.4l6.2,6.6L222.8,856.1z M228.3,852.1v9.8l-4.1-4.4L228.3,852.1z M223,859l4.3,4.6h-7.8L223,859z
				 M224.3,867.4h12.2l-5.8,12.8c-2.9-1.6-5.9-3.2-8.9-4.5L224.3,867.4z M239.4,853.3l-4-10.4l0.1-0.2l6.6,7L239.4,853.3z
				 M242.4,852.4v8.7l-2.2-5.8L242.4,852.4z M238.2,860.7l1.1,2.9h-5.4l3.2-4.1L238.2,860.7z M238.6,867.4h2.2l4,10.3l-4.5,8.5
				c-2.6-1.8-5.2-3.5-7.9-5.1L238.6,867.4z M245.6,880.1l3.9,10.2l-1.2,2.1c-2.1-1.8-4.3-3.5-6.5-5.1L245.6,880.1z M250.8,856.1
				l-6.2-6.6l5-6.5l6.2,6.6L250.8,856.1z M256.2,852.2v9.7l-4.1-4.4L256.2,852.2z M250.9,859.1l4.3,4.5h-7.8L250.9,859.1z
				 M255.7,867.4l-3.7,5.2l-5-5.2H255.7z M250.9,874.1l-2.3,3.1l-3.5-9.1L250.9,874.1z M264.4,856l-6.2-6.5l4.9-6.4l6.2,6.5
				L264.4,856z M269.8,852.1v9.6l-4.1-4.3L269.8,852.1z M264.6,859l4.3,4.6H261L264.6,859z M269.1,867.4l-3.7,5.2l-5-5.2H269.1z
				 M265.5,875.5l5.7,5.9h-9.9L265.5,875.5z M290,885.2l-12.2,13l-24.2-13H290z M274.4,881.4l4.8-6l6.5,6H274.4z M276.4,899.6
				l-13.7,14.5l-10.6-27.5L276.4,899.6z M304.9,912.8l-25.4-13.6l13.1-13.9L304.9,912.8z M290.9,881.4h-2.4l-8.1-7.5l4.6-5.7
				L290.9,881.4z M279,872.6l-5.6-5.2h9.8L279,872.6z M280.9,859.2l-9.1-9.7l3-3.9L280.9,859.2z M271.7,838.5l2.3,5.1l-2.3,3V838.5z
				 M271.7,852.1l10.8,11.5h-10.8V852.1z M277.8,874.1l-5,6.2l-6.1-6.3l4.4-6.1L277.8,874.1z M269.8,838.3v9l-5.4-5.8l2.5-3.2H269.8
				z M264.5,838.3l-1.4,1.8l-1.7-1.8H264.5z M258.1,838.3h0.6l3.2,3.4l-3.8,4.9V838.3z M258.1,852.1l5.1,5.5l-4.6,6h-0.5V852.1z
				 M264.2,874.1l-4.6,6.3l-6.3-6.5l4.6-6.3L264.2,874.1z M256.2,838.3v9l-5.4-5.8l2.5-3.2H256.2z M250.8,838.3l-1.4,1.8l-1.7-1.8
				H250.8z M244.3,838.3h0.8l3.2,3.4l-4,5.2V838.3z M244.3,852l5.3,5.6l-4.6,5.9h-0.7V852z M238.9,838.3h3.5v8.9l-5.7-6.1
				L238.9,838.3z M236.5,838.3l-1.1,1.4l-1.4-1.4H236.5z M236.4,856l-6.1-6.5l2.4-3.1L236.4,856z M230.2,840l1.7,4.3l-1.7,2.2V840z
				 M230.2,852.2l5.5,5.8l-4.2,5.5h-1.2V852.2z M228.3,838.3v9.1l-5.6-5.9l2.5-3.2H228.3z M222.8,838.3l-1.4,1.8l-1.7-1.8H222.8z
				 M216.4,838.3h0.7l3.2,3.4l-3.9,5V838.3z M216.4,852l5.3,5.6l-4.6,6h-0.7V852z M214.5,838.3v8.9l-5.2-5.6l2.9-3.3H214.5z
				 M209.7,838.3l-1.7,2l-1.8-2H209.7z M200.4,838.3h3.1l3.2,3.4l-6.3,7.2V838.3z M200.4,852.1l6.5,6.9l-3.5,4.6h-3V852.1z
				 M199.8,867.4h9.8l-0.9,3.3c-3-0.9-6-1.8-9.1-2.4L199.8,867.4z M198.5,838.3v9l-4.9-5.3l3-3.8H198.5z M197.9,867.4l-0.1,0.4
				c-0.7-0.2-1.5-0.3-2.2-0.4H197.9z M190,863.6l3.6-4.1l3.9,4.1H190z M194.9,858.1l3.6-4.1v8L194.9,858.1z M193.6,856.7l-6.3-6.7
				l5.1-6.4l6.1,6.5v1L193.6,856.7z M194.1,838.3l-1.9,2.4l-2.2-2.4H194.1z M186.6,838.3h0.8l3.6,3.9l-4.4,5.5V838.3z M179.5,856.5
				l-3.2-4.5l4.4-6.2l4,4.2v0L179.5,856.5z M184.7,853v10.6h-0.1l-3.9-5.5L184.7,853z M181.9,844.2l2.8-3.9v7L181.9,844.2z
				 M183.8,838.3l-3.2,4.5l-4.2-4.5H183.8z M179.4,844.4l-4.3,5.9l-4.4-6.2l4.2-4.5L179.4,844.4z M170.6,856.6l-5.4-6.7l4.2-4.4
				l4.6,6.4L170.6,856.6z M170.7,859.8l3.1,3.8l0,0H168L170.7,859.8z M173.6,838.3l-4,4.2l-3-4.2H173.6z M165.2,839.6l3.1,4.3
				l-3.1,3.3V839.6z M163.3,838.3v9.2l-4.4-5.4l3.6-3.8H163.3z M152.4,863.6l3.8-4l3.6,4H152.4z M154.6,867.4
				c-0.4,0.1-0.9,0.2-1.3,0.3l0-0.3H154.6z M157.5,858.2l5.8-6.2v11.6h-0.9L157.5,858.2z M159.9,838.3l-2.2,2.3l-1.9-2.3H159.9z
				 M151.4,838.3h2l3,3.7l-5,5.3V838.3z M151.4,850.1l6.2-6.6l5.1,6.3l-6.5,6.9l-4.8-5.3V850.1z M151.4,854.3l3.5,3.9l-3.5,3.7
				V854.3z M151.4,868c-3,0.7-6,1.4-9,2.3l-0.8-3h9.6L151.4,868z M111.9,860.5l1-1.1l3.2,4.2h-5.4L111.9,860.5z M110.6,853.3
				l-2.8-3.7l6.6-7l0.2,0.3L110.6,853.3z M114.2,858l5.5-5.8v11.4h-1.2L114.2,858z M126.9,867.4l2.5,7.9c-3,1.3-6,2.8-8.9,4.4
				l-5.6-12.3H126.9z M127.1,856l-5-6.5l6.1-6.5l5,6.5L127.1,856z M133.5,852.1v11.5h-0.6l-4.6-6L133.5,852.1z M130.5,863.6h-7.9
				l4.4-4.6L130.5,863.6z M128.9,867.4h10.8l0.9,3.5c-3.2,1-6.4,2.2-9.6,3.6L128.9,867.4z M138.7,863.6l2.9-3.1l2.4,3.1H138.7z
				 M141.8,857.5l-6.1-7.9l5.8-6.2l6.6,7.3L141.8,857.5z M149.5,852.2L149.5,852.2l0,11.4h-3l-3.5-4.5L149.5,852.2z M149.5,838.3v11
				l-6.6-7.3l3.5-3.7H149.5z M143.8,838.3l-2.2,2.3l-2.1-2.3H143.8z M135.4,838.3h1.6l3.3,3.7l-4.9,5.3V838.3z M135.4,852.3l5.1,6.7
				l-4.4,4.7h-0.7V852.3z M133.5,838.3v8.4l-3.8-5l3.1-3.3H133.5z M130.2,838.3l-1.7,1.8l-1.4-1.8H130.2z M121.6,838.3h3.1l2.5,3.2
				l-5.6,5.9V838.3z M121.6,851.9l4.2,5.5l-4.2,4.5V851.9z M119.7,840.2v6.1l-1.6-2L119.7,840.2z M119.7,849.5l-6,6.4l3.6-9.4
				L119.7,849.5z M115.8,838.3l-1.3,1.3l-1-1.3H115.8z M107.5,838.3h3.7l2.1,2.8l-5.8,6.1V838.3z M107.5,852.4l2.3,3l-2.3,6V852.4z
				 M109.3,867.4h3.5l6,13.2c-2.7,1.6-5.4,3.3-8.1,5.1l-4.9-9.3L109.3,867.4z M96.2,885.2l-24.1,12.9l-12.2-12.9H96.2z M64.3,881.4
				l6.4-6l4.8,6H64.3z M85.5,856.1l-4.9-6.5l6.2-6.6l4.9,6.5L85.5,856.1z M91.8,852.1v11.5h-0.6l-4.6-6L91.8,852.1z M88.8,863.6H81
				l4.3-4.6L88.8,863.6z M89.5,867.4l-5,5.1l-3.7-5.1H89.5z M88.6,881.4h-10l5.7-5.9L88.6,881.4z M84.5,914.1H46.4l25.4-13.6
				L84.5,914.1z M73.4,899.6l24.4-13.1l-10.6,27.6h-0.1L73.4,899.6z M91.9,881.4l5.7-5.9l2.9,4l-0.7,1.9H91.9z M104.9,863.6l-4.6-6
				l5.3-5.7v11.6H104.9z M105,867.9l-3.6,9.4l-2.3-3.3L105,867.9z M99.1,856.1l-4.9-6.5l6.2-6.6l4.9,6.5L99.1,856.1z M102.5,863.6
				h-7.8L99,859L102.5,863.6z M102.9,867.4l-5,5.1l-3.7-5.1H102.9z M100.1,891.3l1,1.8c-0.9,0.7-1.7,1.5-2.5,2.2L100.1,891.3z
				 M101,888.9l3.9-10.2l4.3,8.1c-2.2,1.6-4.4,3.3-6.6,5L101,888.9z M105.6,838.3v8.5l-3.9-5.1l3.1-3.3H105.6z M102.2,838.3
				l-1.7,1.8l-1.4-1.8H102.2z M93.7,838.3h3l2.5,3.2l-5.5,5.8V838.3z M93.7,852.2l4.1,5.3l-4.1,4.3V852.2z M96.5,873.9l-6.3,6.5
				l-4.6-6.3l6.3-6.5L96.5,873.9z M91.8,838.3v8.3l-3.8-4.9l3.1-3.3H91.8z M88.6,838.3l-1.7,1.8l-1.4-1.8H88.6z M80.1,838.3h3
				l2.5,3.2l-5.4,5.8V838.3z M80.1,852.2l4,5.3l-4,4.3V852.2z M83.2,873.9l-6.1,6.3l-4.9-6.1l6.7-6.2L83.2,873.9z M78.2,838.4v8.2
				l-2.3-3L78.2,838.4z M75,845.6l3,3.9l-9.1,9.7L75,845.6z M78.2,852.1v11.5H67.4L78.2,852.1z M76.6,867.4l-5.7,5.2l-4.2-5.2H76.6z
				 M64.9,868.1l4.7,5.8l-8,7.5H59L64.9,868.1z M57.3,885.2L57.3,885.2l13.1,13.9L45,912.7L57.3,885.2z M83.8,917.9l-26.1,14
				l-13.2-14H83.8z M70.1,947.9H31.9l25.4-13.6L70.1,947.9z M42.4,918.5l13.6,14.4L29.6,947L42.4,918.5z M70.1,951.7l-26.1,14
				l-14.5-14H70.1z M27.3,952.2l15,14.5L14,981.8L27.3,952.2z M14,984l29.8-16l16.6,16H14z M70.2,984h-5.8l7.8-20.4
				C70.9,970.2,70.2,977,70.2,984z M61.1,982.1l-15.6-15l26.9-14.5L61.1,982.1z M72.7,947.9L59,933.4l26.2-14.1l-11,28.6H72.7z
				 M84.2,932.6l10.4-27.1l4.7,7.2C93.5,918.8,88.4,925.4,84.2,932.6z M100.7,911.4l-5.2-8c2.4-2.4,4.9-4.8,7.5-7l4.8,8.6
				C105.3,907,102.9,909.2,100.7,911.4z M109.2,903.8l-4.8-8.6c2.1-1.8,4.3-3.4,6.5-5l4.7,8.9C113.5,900.6,111.3,902.2,109.2,903.8z
				 M117.3,898l-4.7-8.9c2.6-1.8,5.2-3.4,7.8-5l4.3,9.5C122.1,895,119.7,896.5,117.3,898z M126.4,892.7l-4.3-9.5
				c2.8-1.5,5.6-3,8.5-4.2l3.2,10.3C131.2,890.3,128.8,891.5,126.4,892.7z M135.5,888.5l-3.3-10.4c3.1-1.3,6.2-2.5,9.4-3.5l2.9,10.7
				C141.4,886.3,138.4,887.3,135.5,888.5z M146.3,884.8l-2.9-10.8c2.9-0.9,5.8-1.6,8.7-2.3l2.2,11.1
				C151.6,883.5,149,884.1,146.3,884.8z M156.2,882.6l-2.2-11.1c3.1-0.6,6.3-1.1,9.5-1.4l0.7,11.5
				C161.5,881.7,158.8,882.1,156.2,882.6z M165.2,852.9l4.3,5.3l-3.8,5.4h-0.4V852.9z M174.7,880.9c-2.9,0-5.7,0.1-8.6,0.4
				l-0.7-11.5c3.1-0.3,6.1-0.4,9.3-0.4V880.9z M175,862.1l-3.1-3.9l3.3-4.6l3.1,4.4L175,862.1z M176.2,863.6l3.2-4l2.8,4
				L176.2,863.6L176.2,863.6z M185.1,881.4c-2.8-0.3-5.7-0.4-8.5-0.5v-11.5c3.1,0,6.2,0.2,9.2,0.5L185.1,881.4z M186.6,852l5.7,6.1
				l-4.8,5.5h-0.9V852z M187,881.6l0.7-11.4c3.2,0.4,6.3,0.9,9.4,1.5l-2.2,11.1C192.3,882.3,189.7,881.9,187,881.6z M196.8,883.1
				l2.1-11.1c3,0.7,5.9,1.5,8.8,2.4l-2.9,10.7C202.3,884.4,199.5,883.7,196.8,883.1z M206.7,885.7l2.8-10.7c3.1,1,6.2,2.2,9.2,3.6
				l-3.2,10.3C212.7,887.7,209.7,886.6,206.7,885.7z M217.3,889.6l3.2-10.3c2.9,1.3,5.7,2.8,8.5,4.4l-4.3,9.5
				C222.3,891.9,219.9,890.7,217.3,889.6z M226.4,894.1l4.3-9.4c2.6,1.5,5.2,3.2,7.7,5l-4.7,8.9C231.4,897,228.9,895.5,226.4,894.1z
				 M235.3,899.6l4.7-8.9c2.2,1.6,4.4,3.3,6.5,5l-4.8,8.6C239.6,902.7,237.5,901.1,235.3,899.6z M243.1,905.6l4.8-8.6
				c2.3,1.9,4.4,4,6.6,6.1l0.6,1.5l-4.9,7.5C248,909.9,245.6,907.7,243.1,905.6z M251.6,913.5l4.3-6.7l9.6,25
				C261.6,925.3,256.9,919.1,251.6,913.5z M275.7,947.9l-11-28.6l26.2,14l-13.7,14.5H275.7z M279.9,984c0-6.7-0.7-13.3-1.9-19.7
				l7.6,19.7H279.9z M277.6,952.8l26.8,14.4l-15.5,14.9L277.6,952.8z M289.7,984l16.4-15.8l29.5,15.8H289.7z M307.6,966.8l15-14.5
				l13.3,29.7L307.6,966.8z"/>
			<path class="st0" d="M72.9,816.3h8.5v-17.5h6.7v17.5h10.3v-17.5H116v17.5h10.3v-17.5h17.5v17.5h10.3v-17.5h17.5v17.5h10.3v-17.5
				h17.6v17.5h10.3v-17.5h17.5v17.5h10.3v-17.5h17.6v17.5h10.3v-17.5h6.6v17.5h8.5v-17.5h2.8v-5.3h0.1l-21.5-9.7
				c-4.1-17.1-16.7-70.9-30.7-140.5h0.2l6.4-16.3h0.1v-9.3h-11.7c0,0,0-0.1,0-0.1h3.3v-7.8h8.5V601h-15
				c-19-104.2-25.5-340.5-25.5-433.4h-5.7c0,1.5,0,3,0,4.6h-12.2c0-4.4,0-8.7,0-12.9H194l-2.1,8.2h5.7l2.1-8.2h2.8v-16.9h-5.3v-9.6
				l-8.3-24.8h-3.8v-9.6h-16.9v9.6h-3.9l-8.3,24.8v9.6h-5.1v16.9h3.1l2.1,8.2c0,93.1-6.5,329.5-25.5,433.5h-14.7v8.8h8.6v7.8h2.9
				c0,0,0,0.1,0,0.1h-11.2v9.3h0l6.1,16.2c-14,69.9-26.7,123.8-30.7,140.7l-21.4,9.6v5.3h2.7V816.3z M125,724.1l-9.4-12.5h23.7
				L125,724.1z M140.6,712.9c-1.6,9.4-3.2,17.9-4.6,25.6l-9.8-13L140.6,712.9z M135,740.5h-25.8l15.5-13.6L135,740.5z M132.7,744.3
				L117.8,756l-9.8-11.7H132.7z M127.7,770.7h-25.4l15.3-12L127.7,770.7z M119.1,757.5l15.6-12.3c-1.9,9.9-3.6,18.3-5.1,24.9
				L119.1,757.5z M132.4,783.6c3.3-14.4,11.1-50.4,19.6-105.4h49.6c8.4,55.1,16.2,91,19.5,105.4H132.4z M141.5,643.3h9.8l-6.7,8
				l-3.2-7.6L141.5,643.3L141.5,643.3z M137.7,662.5l6.4-7.6l3.2,7.6H137.7z M138.9,664.4l-3.8,4.2l-1.9-4.2H138.9z M147.6,664.4
				l-3.8,4.2l-1.9-4.2H147.6z M148,666.9c-0.4,2.7-0.8,5.4-1.2,8l-2-4.4L148,666.9z M145.4,653.3l5.4-6.4c-0.7,4.9-1.4,9.7-2,14.4
				L145.4,653.3z M143.2,652.9l-6.7,8l-3.2-7.6l6.7-8L143.2,652.9z M135.2,662.5h-9.6l6.4-7.6L135.2,662.5z M133.7,670.1l-4.4,4.8
				l-2.1-4.6l4.4-4.8L133.7,670.1z M134.6,672l2,4.3h-5.8L134.6,672z M135.9,670.5l4.5-4.9l2.1,4.6L138,675L135.9,670.5z M143.3,672
				l2,4.3h-5.9L143.3,672z M146.1,679.3c-1.5,9.5-2.9,18.5-4.3,26.8l-9.9-13.7L146.1,679.3z M172.6,205h-9.1l4.5-6.8L172.6,205z
				 M164.2,189.1h7.7l-3.8,5.7L164.2,189.1z M172,208.8l-3.9,5.8l-3.9-5.8H172z M171.9,223.8h-7.7l3.9-5.8L171.9,223.8z M171,227.6
				l-3.9,5.7l-3.9-5.7H171z M171.2,242.8h-8.1l4-6L171.2,242.8z M171,246.6l-3.9,5.7l-3.9-5.7H171z M171.9,262.8h-9.4l4.7-7
				L171.9,262.8z M172.3,266.6l-5.1,7.1l-5.1-7.1H172.3z M172.2,283.9h-10l5-6.9L172.2,283.9z M168.4,275.3l4.7-6.5
				c-0.1,4.2-0.1,8.4-0.2,12.7L168.4,275.3z M172.7,290.1c-0.1,4-0.2,8.1-0.2,12.1l-4.6-5.9L172.7,290.1z M168.3,254.1l5-7.5h0.1
				c-0.1,4.9-0.1,9.8-0.2,14.7L168.3,254.1z M168.3,235.1l5-7.5h0.3c-0.1,5-0.1,10-0.2,15.1L168.3,235.1z M169.2,216.3l4.6-6.8
				c0,4.4-0.1,8.9-0.1,13.4L169.2,216.3z M169.2,196.5l4.7-7.1c0,4.6-0.1,9.3-0.1,14L169.2,196.5z M161.7,185.3c0-3.2,0-6.3,0.1-9.3
				H174c0,3.1,0,6.2,0,9.3H161.7z M161.9,189.1l5,7.4l-5.3,8c0.1-5.4,0.1-10.5,0.2-15.4H161.9z M161.9,208.8l5,7.5l-5,7.5h-0.7
				c0.1-5.1,0.2-10.2,0.2-15H161.9z M166,235.1l-5.1,7.6c0.1-5.1,0.2-10,0.3-14.8L166,235.1z M161,246.6l5,7.5l-5.6,8.3
				c0.1-5.4,0.3-10.6,0.4-15.8H161z M166,275.3l-6.2,8.5c0.2-5.6,0.3-11,0.5-16.4L166,275.3z M172.1,287.7l-5.4,7l-5.4-7H172.1z
				 M172.1,304.9h-10.9l5.5-7.1L172.1,304.9z M172.1,308.7l-6.2,8.7l-6.2-8.7H172.1z M172.2,311.9c-0.1,4.6-0.2,9.3-0.3,13.9
				l-4.8-6.7L172.2,311.9z M171.8,329c0,0.2,0,0.5,0,0.7h-12.3l6.4-9L171.8,329z M171.6,333.5l-6.1,8.4l-6.1-8.4H171.6z
				 M171.6,336.7c-0.1,4.4-0.2,8.7-0.3,13l-4.6-6.3L171.6,336.7z M165.5,345.1l5.7,7.8c0,0.3,0,0.5,0,0.8h-12L165.5,345.1z
				 M171,357.5l-6.3,8.6l-6.3-8.6H171z M171,360.8c-0.1,4.4-0.3,8.8-0.4,13.2l-4.7-6.4L171,360.8z M164.8,369.3l5.7,7.8
				c0,0.3,0,0.6,0,0.9h-12.1L164.8,369.3z M169.8,381.8l-6.5,8.9l-6.5-8.9H169.8z M170.3,384.4c-0.2,5.1-0.3,10.1-0.5,15.1l-5.3-7.2
				L170.3,384.4z M163.3,394l6.3,8.7c0,0.3,0,0.5,0,0.8h-13.2L163.3,394z M168.4,407.2l-6.5,9.8l-6.5-9.8H168.4z M169.4,409
				c-0.2,6.2-0.4,12.3-0.7,18.4l-5.8-8.7L169.4,409z M161.8,420.4l6.8,10.2c0,0.3,0,0.5,0,0.8h-14.1L161.8,420.4z M167.5,457.8
				c0,0.2,0,0.3,0,0.5h-14.8l7.6-10.2L167.5,457.8z M161.5,446.5l6.9-9.4c-0.2,6-0.5,11.9-0.8,17.8L161.5,446.5z M166.2,485.3
				C166.2,485.3,166.2,485.3,166.2,485.3l-15.2,0l7.6-10.3L166.2,485.3z M159.8,473.4l7.5-10.1c-0.3,6.5-0.6,12.8-0.9,19
				L159.8,473.4z M164.7,511.2c0,0.2,0,0.3,0,0.5h-16l8.2-10.3L164.7,511.2z M158.1,499.9l7.8-9.8c-0.3,6.3-0.7,12.4-1,18.3
				L158.1,499.9z M162.9,539.5c0,0.2,0,0.5-0.1,0.7h-16.5l8.5-11.5L162.9,539.5z M156,527.1l8.5-11.4c-0.5,7.3-0.9,14.3-1.4,20.9
				L156,527.1z M181.5,304.9l5.4-7l5.4,7H181.5z M193.9,308.7l-6.2,8.7l-6.2-8.7H193.9z M181.5,287.7h10.9l-5.4,7L181.5,287.7z
				 M181.5,283.9l5-7l5,7H181.5z M181.4,266.6h10.2l-5.1,7.1L181.4,266.6z M181.8,262.8l4.7-7.1l4.7,7.1H181.8z M182.7,246.6h7.7
				l-3.8,5.7L182.7,246.6z M182.5,242.8l4.1-6.1l4.1,6.1H182.5z M182.7,227.6h7.7l-3.8,5.7L182.7,227.6z M181.8,223.8l3.9-5.8
				l3.9,5.8H181.8z M181.8,208.8h7.8l-3.9,5.8L181.8,208.8z M181.1,205l4.5-6.8l4.5,6.8H181.1z M181.8,189.1h7.7l-3.8,5.7
				L181.8,189.1z M184.5,196.5l-4.6,6.9c0-4.7-0.1-9.3-0.1-13.9L184.5,196.5z M184.5,216.3l-4.5,6.7c0-4.6-0.1-9.1-0.1-13.6
				L184.5,216.3z M180.4,227.6l5,7.4l-5.1,7.6c-0.1-5-0.1-10.1-0.2-15.1H180.4z M180.4,246.6l5,7.4l-4.8,7.2
				C180.5,256.3,180.4,251.5,180.4,246.6L180.4,246.6z M185.4,275.3l-4.5,6.2c-0.1-4.3-0.2-8.5-0.2-12.8L185.4,275.3z M185.8,296.3
				l-4.5,5.8c-0.1-4-0.2-7.9-0.2-11.9L185.8,296.3z M186.6,319l-4.8,6.7c-0.1-4.6-0.2-9.2-0.3-13.8L186.6,319z M187.7,320.7l6.4,9
				h-12.3c0-0.3,0-0.5,0-0.8L187.7,320.7z M194.3,333.5l-6.1,8.4l-6.1-8.4H194.3z M187,343.5l-4.6,6.3c-0.1-4.3-0.2-8.7-0.3-13
				L187,343.5z M188.2,345.1l6.3,8.6h-12c0-0.3,0-0.6,0-0.9L188.2,345.1z M195.1,357.5l-6.3,8.6l-6.2-8.5c0,0,0,0,0-0.1H195.1z
				 M187.7,367.7l-4.6,6.3c-0.1-4.3-0.3-8.7-0.4-13L187.7,367.7z M188.9,369.3l6.4,8.7h-12c0-0.3,0-0.7,0-1L188.9,369.3z
				 M196.8,381.8l-6.5,8.9l-6.5-8.9H196.8z M189.2,392.3l-5.2,7.2c-0.2-5-0.3-10-0.5-15L189.2,392.3z M190.3,393.9l6.9,9.5h-13.2
				c0-0.3,0-0.5,0-0.8L190.3,393.9z M198.4,407.2l-6.6,9.9l-6.6-9.9H198.4z M190.7,418.8l-5.8,8.7c-0.2-6.1-0.5-12.2-0.7-18.4
				L190.7,418.8z M191.9,420.5l7.3,10.9h-14c0-0.2,0-0.5,0-0.7L191.9,420.5z M193.5,448l7.6,10.3h-14.8c0-0.2,0-0.3,0-0.5L193.5,448
				z M186.1,454.8c-0.3-5.9-0.5-11.8-0.8-17.9l7,9.4L186.1,454.8z M195,475.1l7.6,10.2h-15.1c0,0,0,0,0,0L195,475.1z M187.4,482.3
				c-0.3-6.1-0.6-12.4-0.9-18.8l7.4,10L187.4,482.3z M196.7,501.4l8.2,10.3H189c0-0.2,0-0.4,0-0.6L196.7,501.4z M188.8,508.3
				c-0.3-5.9-0.7-12-1-18.2l7.7,9.7L188.8,508.3z M198.8,528.7l8.5,11.5h-16.4c0-0.2,0-0.5-0.1-0.7L198.8,528.7z M190.6,536.6
				c-0.5-6.6-0.9-13.5-1.4-20.8l8.4,11.3L190.6,536.6z M174.7,643.3l-9,8.1l-7.4-8.1H174.7z M157.1,598.4l-7.2-11.7l9.7-10.7
				C158.8,583.7,157.9,591.1,157.1,598.4z M195.2,643.3l-7.4,8.1l-8.9-8.1H195.2z M194.1,576.1l9.6,10.6l-7.1,11.6
				C195.8,591.1,194.9,583.7,194.1,576.1z M180.3,662.5l7.7-8.5l9.4,8.5H180.3z M198.3,664.4l-2.3,4.2l-3.4-4.2H198.3z M189.5,664.4
				l-2.3,4.1l-3.3-4.1H189.5z M186.6,652.8l-8.9,9.7h-1.8l-8.9-9.7l9.8-8.8L186.6,652.8z M180.1,664.4l-3.4,3.6l-3.3-3.6H180.1z
				 M173.3,662.5h-17.1l9.4-8.4L173.3,662.5z M169.7,664.4l-3.3,4.2l-2.3-4.2H169.7z M161,664.4l-3.3,4.1l-2.3-4.1H161z
				 M159.8,676.3h-6l3.5-4.4L159.8,676.3z M158.7,670.3l3.9-4.8l2.6,4.6l-3.9,4.8L158.7,670.3z M166.1,671.9l2.4,4.4h-5.9
				L166.1,671.9z M167.4,670.3l4.1-5.1l3.9,4.2l-5.3,5.7L167.4,670.3z M176.7,670.8l5.1,5.5h-10.2L176.7,670.8z M178,669.4l4-4.4
				l4.2,5.2l-2.8,5L178,669.4z M187.5,671.9l3.5,4.4h-6L187.5,671.9z M188.5,670.1l2.6-4.6l3.9,4.8l-2.6,4.6L188.5,670.1z
				 M196.3,672l3.5,4.3h-5.9L196.3,672z M197.3,670.2l2.5-4.5c0.5,3.2,0.9,6.3,1.4,9.3L197.3,670.2z M189.3,652.6l7.5-8.2
				c0.8,5.9,1.6,11.5,2.4,17.1L189.3,652.6z M205.1,588.2l11.6,12.8h-19.5L205.1,588.2z M204.8,585.1l-9.7-10.7h16.3L204.8,585.1z
				 M195,570.6l6.7-11.5l9.1,11.5H195z M201.5,555.8l-9.3-11.8h16.2L201.5,555.8z M200.4,557.5l-7,12c-0.7-7.1-1.4-14.9-2.1-23.4
				L200.4,557.5z M193.2,617.6c0,0,0,0.1,0,0.1h-32.7c0,0,0-0.1,0-0.1H193.2z M160.3,569.5l-7.1-12l9.1-11.5
				C161.7,554.5,161,562.4,160.3,569.5z M161.5,544l-9.3,11.7l-6.9-11.7H161.5z M158.7,570.6h-15.9l9.1-11.5L158.7,570.6z
				 M158.5,574.4l-9.7,10.6l-6.5-10.6H158.5z M156.4,601h-19.5l11.7-12.8L156.4,601z M156.9,644.5l7.4,8.1l-9.8,8.9
				C155.3,656,156.1,650.4,156.9,644.5z M156.4,670.1l-3.9,4.8c0.5-3,0.9-6.1,1.4-9.2L156.4,670.1z M212.3,643.6l-3.2,7.6l-6.6-7.9
				h9.7l-0.1,0.1L212.3,643.6z M235.9,756.1L221,744.3h24.8L235.9,756.1z M236.2,758.7l15.2,12h-25.3L236.2,758.7z M218.7,740.5
				l10.3-13.6l15.5,13.6H218.7z M217.8,738.6c-1.5-7.7-3-16.2-4.6-25.6l14.4,12.6L217.8,738.6z M228.7,724.1l-14.3-12.5h23.8
				L228.7,724.1z M213,707.8l10.1-14l15.2,14H213z M212,706c-1.4-8.2-2.8-17.1-4.3-26.4l14,12.9L212,706z M206.4,662.5l3.3-7.7
				l6.4,7.7H206.4z M220.4,664.4l-1.9,4.2l-3.8-4.2H220.4z M211.6,664.4l-1.9,4.1l-3.7-4.1H211.6z M204.9,661.1
				c-0.7-4.6-1.4-9.4-2-14.3l5.4,6.4L204.9,661.1z M208.9,670.4l-2,4.3c-0.4-2.6-0.8-5.2-1.2-7.8L208.9,670.4z M210.3,671.9l4,4.4
				h-6L210.3,671.9z M211.2,670l2-4.5l4.4,4.9l-2,4.5L211.2,670z M219,672l3.9,4.3H217L219,672z M219.9,670.1l2.1-4.6l4.4,4.9
				l-2.1,4.6L219.9,670.1z M218.5,662.5L218.5,662.5l3.2-7.6l6.4,7.6H218.5z M217.1,660.8l-6.7-8l3.2-7.6l6.7,8L217.1,660.8z
				 M219,745.2l15.6,12.3l-10.6,12.6C222.7,763.5,221,755.1,219,745.2z M256.2,783.6h-29c-0.5-2.3-1.2-5.4-2.1-9.1H254
				C254.9,778.1,255.6,781.1,256.2,783.6z M252.8,769.4l-15.5-12.2l9.9-11.8C249.4,754.7,251.3,762.8,252.8,769.4z M245.9,739.2
				l-15.8-13.8l9.9-13C242.1,722.1,244.1,731.1,245.9,739.2z M238.5,705.4l-14.3-13.2l8.9-12.3C234.9,688.8,236.7,697.3,238.5,705.4
				z M222.8,690.9L209,678.2h22.9L222.8,690.9z M225.8,676.3l2-4.4l4,4.4H225.8z M231.7,673.4l-3.1-3.4l1.6-3.6
				C230.8,668.8,231.2,671.1,231.7,673.4z M227.2,668.5l-3.7-4.1h5.6L227.2,668.5z M229.1,660.7l-6.5-7.8l3.3-7.9
				C227,650.3,228,655.5,229.1,660.7z M224.5,643.3l-3.4,8l-6.7-8H224.5z M220.5,617.7H199c0,0,0-0.1,0-0.1h21.5
				C220.5,617.6,220.5,617.7,220.5,617.7z M216.8,598.3l-10.7-11.8l7.1-11.5C214.4,583.3,215.6,591.1,216.8,598.3z M212.5,569.7
				l-9.8-12.3l6.9-11.7C210.5,554,211.5,562.1,212.5,569.7z M208.9,539l-8.8-11.9l6.7-9.1C207.4,525.2,208.1,532.2,208.9,539z
				 M198.8,525.6l-7.5-10.1h15L198.8,525.6z M206,510.1l-8.1-10.2l6.5-8.2C205,497.9,205.5,504,206,510.1z M196.7,498.3l-7.3-9.2
				H204L196.7,498.3z M203.8,483.8l-7.6-10.3l6.2-8.5C202.9,471.3,203.4,477.6,203.8,483.8z M195,471.9l-7.2-9.8h14.4L195,471.9z
				 M201.8,456.2l-7.2-9.8l6-8.2C201.1,444.2,201.4,450.2,201.8,456.2z M200.5,435.3l-7,9.5l-7.1-9.6L200.5,435.3
				C200.5,435.2,200.5,435.2,200.5,435.3z M200.1,429.5l-7.1-10.7l6-9C199.4,416.3,199.8,422.9,200.1,429.5z M197.7,383.8
				c0.3,6.1,0.6,12.2,0.9,18.2l-7.1-9.7L197.7,383.8z M197.4,377.7l-7.3-10l6.5-8.9C196.8,365.1,197.1,371.4,197.4,377.7z
				 M196.3,352.9l-6.9-9.4l6.2-8.5C195.8,340.9,196,346.9,196.3,352.9z M195.3,328l-6.4-9l5.8-8.1
				C194.9,316.5,195.1,322.3,195.3,328z M194.5,304.5l-6.3-8.2l5.8-7.5C194.1,293.9,194.3,299.2,194.5,304.5z M193.8,283.8l-6.1-8.5
				l5.7-7.8C193.5,272.8,193.7,278.3,193.8,283.8z M193.3,262.4l-5.6-8.3l5-7.4h0.2C193,251.8,193.1,257,193.3,262.4z M192.8,242.7
				l-5.1-7.7l4.8-7.2C192.6,232.7,192.7,237.6,192.8,242.7z M192.5,223.8h-0.6l-5-7.5l5.1-7.5h0.3
				C192.3,213.6,192.4,218.7,192.5,223.8z M192.2,204.6l-5.4-8l5-7.4h0.2C192,194,192.1,199.2,192.2,204.6z M191.9,176
				c0,3,0,6.1,0.1,9.3h-12.2c0-3.1,0-6.2,0-9.3H191.9z M188.3,575.9c0.9,8.6,1.9,17,2.9,25.1h-28.6c1-8.1,1.9-16.4,2.9-25
				c5-46.4,9-130.9,11.4-220.4C179.3,445.1,183.2,529.6,188.3,575.9z M174,159.3c0,4.2,0,8.5,0,12.9h-12.2c0-1.6,0-3.2,0-4.7h0l0,0
				c0,0,0-0.1,0-0.1h0l-2.1-8.1H174z M159.7,288.8l5.7,7.4l-6.2,8.1C159.4,299.1,159.6,294,159.7,288.8z M159,310.9l5.8,8.1l-6.4,9
				C158.6,322.3,158.8,316.6,159,310.9z M158.1,335l6.2,8.4l-6.9,9.4C157.7,346.9,157.9,341,158.1,335z M157.2,358.9l6.4,8.8
				l-7.3,9.9C156.6,371.3,156.9,365.1,157.2,358.9z M156,383.9l6.2,8.5l-7.1,9.7C155.4,396,155.7,390,156,383.9z M154.7,409.7l6,9.1
				l-7.2,10.8C153.9,422.9,154.3,416.3,154.7,409.7z M153.2,435.2h14.2l-7.1,9.7L153.2,435.2C153.2,435.2,153.2,435.2,153.2,435.2z
				 M153,438.2l6.1,8.3l-7.3,9.9C152.2,450.3,152.6,444.3,153,438.2z M165.8,462.1l-7.2,9.7l-7.2-9.7H165.8z M151.2,465l6.2,8.4
				l-7.6,10.3C150.3,477.5,150.8,471.3,151.2,465z M164.3,489.1l-7.3,9.2l-7.3-9.2H164.3z M149.2,491.7l6.5,8.2l-8.1,10.1
				C148.2,504,148.7,497.9,149.2,491.7z M162.3,515.5l-7.4,10l-7.4-10H162.3z M146.9,518.1l6.7,9l-8.8,11.8
				C145.6,532.2,146.3,525.2,146.9,518.1z M144.1,545.7l6.8,11.6l-9.7,12.3C142.2,562,143.2,554,144.1,545.7z M140.5,575l7.1,11.5
				l-10.7,11.8C138.1,591.1,139.3,583.3,140.5,575z M133.2,617.6h21.5c0,0,0,0.1,0,0.1h-21.5C133.2,617.7,133.2,617.6,133.2,617.6z
				 M139.2,643.3L139.2,643.3l-6.7,8l-3.4-8H139.2z M127.8,645l3.3,7.9l-6.5,7.8C125.6,655.6,126.7,650.4,127.8,645z M130.1,664.4
				l-3.7,4.1l-1.9-4.1H130.1z M123.4,666.5l1.6,3.5l-3,3.4C122.4,671.1,122.9,668.8,123.4,666.5z M125.9,671.9l2,4.4h-5.9
				L125.9,671.9z M144.5,678.2l-13.7,12.6l-9.1-12.6H144.5z M120.6,680l8.7,12.2l-14.1,13C117,697.2,118.8,688.8,120.6,680z
				 M130.5,693.7l10.1,14.1h-25.4L130.5,693.7z M113.7,712.3l9.9,13l-15.8,13.9C109.6,731,111.6,722,113.7,712.3z M106.4,745.3
				l10,11.8l-15.5,12.2C102.4,762.7,104.3,754.7,106.4,745.3z M99.7,774.5h29c-0.8,3.7-1.5,6.8-2.1,9.1H97.5
				C98.1,781.1,98.8,778.1,99.7,774.5z"/>
		</g>
	</g>
</g>
</svg>
